#!OML:ASF F:\VICON\USERDATA\INSTALL\rory3\rory3.ASF
:FULLY-SPECIFIED
:DEGREES
661
root 0.0467588 29.0963 -6.0231 4.09015 -31.6393 0.186807
lowerback 4.50499 0.342821 -3.04583
upperback 1.72318 0.332377 1.28861
thorax -0.778504 0.151327 3.01843
lowerneck -13.2192 4.00288 -9.36291
upperneck 42.0861 8.97781 -0.62757
head 17.3975 1.85173 2.88487
rclavicle 7.40473e-015 2.98177e-015
rhumerus -33.4569 -3.64251 -79.4175
rradius 37.506
rwrist 18.5661
rhand -20.2047 2.62686
rfingers 7.12502
rthumb 6.14223 -27.2641
lclavicle 7.40473e-015 2.98177e-015
lhumerus -31.7012 11.4662 78.0378
lradius 32.9794
lwrist -3.54696
lhand -10.3537 27.4264
lfingers 7.12502
lthumb 15.6431 56.814
rfemur -16.6426 11.7693 14.0221
rtibia 32.3
rfoot -7.49224 15.5039
rtoes 13.3574
lfemur -16.481 -11.0076 -19.4078
ltibia 23.6697
lfoot -5.6419 -29.8841
ltoes 5.75472
662
root 0.00371782 29.0956 -6.0316 4.02138 -30.8799 0.231203
lowerback 4.5414 0.315267 -3.05863
upperback 1.54921 0.295189 1.37438
thorax -0.975374 0.139089 3.11589
lowerneck -12.6513 4.09963 -9.54233
upperneck 42.0782 9.12171 -0.67617
head 17.2363 1.89529 2.89222
rclavicle 7.49915e-014 -1.35174e-014
rhumerus -33.9127 -3.51091 -79.3185
rradius 37.4619
rwrist 18.5294
rhand -20.0143 2.6378
rfingers 7.12502
rthumb 6.32604 -27.2477
lclavicle 7.49915e-014 -1.35174e-014
lhumerus -32.2456 11.8223 77.9139
lradius 33.1327
lwrist -3.74812
lhand -10.1314 27.3884
lfingers 7.12502
lthumb 15.8571 56.759
rfemur -16.2346 11.5454 14.2605
rtibia 32.0968
rfoot -8.23862 14.7665
rtoes 12.8667
lfemur -16.4433 -11.2311 -19.3123
ltibia 23.6149
lfoot -5.23879 -30.3339
ltoes 6.28488
663
root -0.0365292 29.0944 -6.03853 3.93534 -30.03 0.317109
lowerback 4.56846 0.281656 -2.98261
upperback 1.4409 0.25306 1.36136
thorax -1.09836 0.122187 3.0617
lowerneck -12.4231 4.12619 -9.59114
upperneck 42.1231 9.09529 -0.518566
head 17.1856 1.90788 2.95949
rclavicle 1.02871e-014 -1.43125e-014
rhumerus -34.1852 -3.51851 -79.3519
rradius 37.3361
rwrist 18.4395
rhand -19.9505 2.82574
rfingers 7.12502
rthumb 6.38762 -27.0579
lclavicle 1.02871e-014 -1.43125e-014
lhumerus -32.5387 11.9367 77.7902
lradius 33.1166
lwrist -3.65378
lhand -10.143 27.3578
lfingers 7.12502
lthumb 15.8459 56.7293
rfemur -15.8099 11.2178 14.4647
rtibia 31.867
rfoot -8.89829 14.0419
rtoes 13.3747
lfemur -16.4323 -11.5004 -19.2636
ltibia 23.5536
lfoot -4.95095 -30.844
ltoes 6.46337
664
root -0.0732748 29.0905 -6.04461 3.97728 -29.1036 0.383893
lowerback 4.51659 0.190031 -2.86235
upperback 1.38162 0.138005 1.36256
thorax -1.12153 0.0661318 3.00139
lowerneck -12.2772 4.15918 -9.49248
upperneck 42.065 9.21475 -0.782741
head 17.1421 1.94797 2.8375
rclavicle -4.42296e-015 -7.95139e-015
rhumerus -34.3092 -3.58178 -79.3857
rradius 37.2935
rwrist 18.4419
rhand -19.9219 2.80167
rfingers 7.12502
rthumb 6.41522 -27.0812
lclavicle -4.42296e-015 -7.95139e-015
lhumerus -32.6513 11.9665 77.7347
lradius 32.8844
lwrist -3.43259
lhand -10.921 26.6116
lfingers 7.12502
lthumb 15.0966 56.041
rfemur -15.5038 10.727 14.6615
rtibia 31.6484
rfoot -9.3443 13.5264
rtoes 14.4658
lfemur -16.5605 -11.869 -19.1714
ltibia 23.4502
lfoot -4.53242 -31.2998
ltoes 6.87785
665
root -0.11129 29.0905 -6.05293 4.1134 -28.273 0.438379
lowerback 4.38645 0.153218 -2.76793
upperback 1.33727 0.0965936 1.35566
thorax -1.09131 0.0457266 2.94314
lowerneck -12.3496 4.13855 -9.47771
upperneck 41.9976 9.2062 -0.783
head 17.1235 1.95724 2.83705
rclavicle -6.44062e-014 1.86858e-014
rhumerus -34.4098 -3.72211 -79.3829
rradius 37.2728
rwrist 18.4328
rhand -19.8563 2.71571
rfingers 7.12502
rthumb 6.47857 -27.1652
lclavicle -6.44062e-014 1.86858e-014
lhumerus -32.6402 11.9774 77.637
lradius 32.6646
lwrist -3.45355
lhand -11.313 26.0627
lfingers 7.12502
lthumb 14.719 55.5201
rfemur -15.3298 10.3039 14.8615
rtibia 31.4695
rfoot -9.81153 13.0313
rtoes 15.0955
lfemur -16.7591 -12.1811 -19.0306
ltibia 23.2919
lfoot -3.98305 -31.6422
ltoes 7.67173
666
root -0.148803 29.0899 -6.06155 4.15973 -27.5012 0.668847
lowerback 4.26389 0.246866 -2.72287
upperback 1.32764 0.224919 1.21865
thorax -1.04131 0.109477 2.76967
lowerneck -12.3975 4.03193 -9.47058
upperneck 41.9231 9.02119 -0.66751
head 17.092 1.91276 2.86087
rclavicle 1.99282e-014 -9.93923e-015
rhumerus -34.4552 -4.23213 -79.3289
rradius 37.1518
rwrist 18.4772
rhand -19.8718 3.00406
rfingers 7.12502
rthumb 6.4636 -26.8773
lclavicle 1.99282e-014 -9.93923e-015
lhumerus -32.4348 11.7169 77.649
lradius 32.5062
lwrist -3.41931
lhand -11.6784 26.0647
lfingers 7.12502
lthumb 14.3669 55.5475
rfemur -15.1885 9.69705 14.9175
rtibia 31.3362
rfoot -10.3959 12.5448
rtoes 14.6745
lfemur -16.907 -12.4319 -19.0815
ltibia 23.0808
lfoot -3.20581 -32.0514
ltoes 8.81876
667
root -0.183183 29.0853 -6.07293 4.09973 -26.8162 1.16538
lowerback 4.07007 0.380404 -2.99263
upperback 1.35871 0.395916 1.08475
thorax -0.913387 0.192646 2.77552
lowerneck -12.5624 3.96484 -9.50439
upperneck 41.9915 8.95742 -0.58837
head 17.1683 1.89244 2.90434
rclavicle 2.97183e-014 1.07344e-014
rhumerus -34.4243 -4.56262 -79.228
rradius 37.082
rwrist 18.4981
rhand -19.9632 2.84046
rfingers 7.12502
rthumb 6.37537 -27.0436
lclavicle 2.97183e-014 1.07344e-014
lhumerus -32.1896 11.6912 77.7917
lradius 32.289
lwrist -3.47892
lhand -12.4123 25.657
lfingers 7.12502
lthumb 13.6596 55.1888
rfemur -15.0792 8.92858 14.6969
rtibia 31.2253
rfoot -11.1109 12.0765
rtoes 13.1651
lfemur -17.0314 -12.7331 -19.4006
ltibia 22.8575
lfoot -2.55759 -32.47
ltoes 9.63787
668
root -0.21841 29.085 -6.08687 4.12423 -26.2418 1.46979
lowerback 3.9602 0.507527 -3.10534
upperback 1.35014 0.563456 1.00531
thorax -0.872762 0.275958 2.74953
lowerneck -12.919 3.83469 -9.907
upperneck 42.1466 8.83097 -0.225733
head 17.3041 1.81678 3.13811
rclavicle 3.55825e-014 -1.19271e-015
rhumerus -34.4728 -4.71843 -79.1934
rradius 37.1005
rwrist 18.3373
rhand -19.8901 2.42929
rfingers 7.12502
rthumb 6.44593 -27.4526
lclavicle 3.55825e-014 -1.19271e-015
lhumerus -32.1064 11.8146 77.7988
lradius 32.218
lwrist -3.7794
lhand -11.8918 26.3862
lfingers 7.12502
lthumb 14.1613 55.8836
rfemur -14.9965 8.39384 14.6312
rtibia 31.1144
rfoot -11.7256 11.6069
rtoes 12.6466
lfemur -17.1453 -12.9115 -19.5258
ltibia 22.6147
lfoot -2.05707 -32.86
ltoes 10.1533
669
root -0.257014 29.0961 -6.10635 4.74174 -26.5738 1.3711
lowerback 3.39881 0.870639 -3.02652
upperback 1.29323 1.06686 0.979433
thorax -0.651119 0.525056 2.66141
lowerneck -13.4479 3.78259 -9.70187
upperneck 42.2949 8.86447 -0.349277
head 17.5486 1.82576 3.08494
rclavicle 2.99171e-014 7.15625e-015
rhumerus -34.2899 -5.01648 -79.2445
rradius 36.9484
rwrist 18.3861
rhand -19.8056 2.47764
rfingers 7.12502
rthumb 6.52752 -27.4018
lclavicle 2.99171e-014 7.15625e-015
lhumerus -31.9338 12.0213 77.6813
lradius 32.2254
lwrist -3.99153
lhand -10.617 28.3395
lfingers 7.12502
lthumb 15.3894 57.7467
rfemur -15.6379 8.53652 14.7672
rtibia 30.9898
rfoot -11.7758 11.5213
rtoes 13.1403
lfemur -17.6353 -12.4315 -19.1868
ltibia 22.3804
lfoot -2.04809 -32.9869
ltoes 9.6081
670
root -0.298937 29.1055 -6.12308 4.94594 -26.3196 1.309
lowerback 3.22067 1.00458 -2.99653
upperback 1.34908 1.25212 0.999915
thorax -0.506725 0.614543 2.66146
lowerneck -13.9872 3.79537 -9.28848
upperneck 42.5488 9.03601 -0.708495
head 17.8892 1.87837 2.91534
rclavicle 4.24405e-014 -1.98785e-015
rhumerus -34.033 -5.11034 -79.2976
rradius 36.7024
rwrist 18.6129
rhand -19.856 2.8415
rfingers 7.12502
rthumb 6.47887 -27.0394
lclavicle 4.24405e-014 -1.98785e-015
lhumerus -31.8181 12.5827 77.4879
lradius 32.1334
lwrist -4.42211
lhand -9.98138 29.0229
lfingers 7.12502
lthumb 16.0016 58.382
rfemur -15.6723 8.80824 14.9843
rtibia 30.8248
rfoot -12.1035 11.0491
rtoes 13.6035
lfemur -17.7645 -12.1904 -18.9462
ltibia 22.2044
lfoot -1.9616 -33.5859
ltoes 9.00474
